<?xml version="1.0" encoding="UTF-8" standalone="no"?>
<!-- Generator: Adobe Illustrator 16.0.0, SVG Export Plug-In . SVG Version: 6.00 Build 0)  -->

<svg
   xmlns:dc="http://purl.org/dc/elements/1.1/"
   xmlns:cc="http://creativecommons.org/ns#"
   xmlns:rdf="http://www.w3.org/1999/02/22-rdf-syntax-ns#"
   xmlns:svg="http://www.w3.org/2000/svg"
   xmlns="http://www.w3.org/2000/svg"
   xmlns:sodipodi="http://sodipodi.sourceforge.net/DTD/sodipodi-0.dtd"
   xmlns:inkscape="http://www.inkscape.org/namespaces/inkscape"
   version="1.1"
   id="Capa_1"
   x="0px"
   y="0px"
   width="512px"
   height="512px"
   viewBox="0 0 512 512"
   style="enable-background:new 0 0 512 512;"
   xml:space="preserve"
   sodipodi:docname="Places_Notes.svg"
   inkscape:version="0.92.2 (5c3e80d, 2017-08-06)"><metadata
     id="metadata3865"><rdf:RDF><cc:Work
         rdf:about=""><dc:format>image/svg+xml</dc:format><dc:type
           rdf:resource="http://purl.org/dc/dcmitype/StillImage" /><dc:title></dc:title></cc:Work></rdf:RDF></metadata><defs
     id="defs3863" /><sodipodi:namedview
     pagecolor="#ffffff"
     bordercolor="#666666"
     borderopacity="1"
     objecttolerance="10"
     gridtolerance="10"
     guidetolerance="10"
     inkscape:pageopacity="0"
     inkscape:pageshadow="2"
     inkscape:window-width="1920"
     inkscape:window-height="1025"
     id="namedview3861"
     showgrid="false"
     inkscape:zoom="1.1656213"
     inkscape:cx="120.85296"
     inkscape:cy="162.81207"
     inkscape:window-x="0"
     inkscape:window-y="27"
     inkscape:window-maximized="1"
     inkscape:current-layer="Capa_1" /><g
     id="g3828"
     transform="rotate(90,-29.509998,122.42507)"
     style="fill:#1d0000;fill-opacity:1;stroke:#1f0000;stroke-opacity:1"><path
       d="M -131.53838,-225.90962 V 71.0699 H 343.62886 V -344.70143 H -12.746567 Z m 41.994763,0 76.79705,-76.79705 v 76.79705 z M 313.93091,-315.00348 V 41.37194 H -101.84043 V -196.21167 H 16.951383 V -315.00348 Z M 224.83705,11.674 V -285.30553 H 254.535 V 11.674 Z"
       id="path3826"
       inkscape:connector-curvature="0"
       style="fill:#1d0000;fill-opacity:1;stroke:#1f0000;stroke-width:0.92806101;stroke-opacity:1"
       sodipodi:nodetypes="cccccccccccccccccccccc" /></g><g
     id="g3830" /><g
     id="g3832" /><g
     id="g3834" /><g
     id="g3836" /><g
     id="g3838" /><g
     id="g3840" /><g
     id="g3842" /><g
     id="g3844" /><g
     id="g3846" /><g
     id="g3848" /><g
     id="g3850" /><g
     id="g3852" /><g
     id="g3854" /><g
     id="g3856" /><g
     id="g3858" /><g
     id="g3892"
     transform="matrix(0.43246899,0,0,0.43246899,371.00258,129.579)"
     style="fill:#0a0000;fill-opacity:1;stroke:none;stroke-opacity:1"><path
       style="fill:#0a0000;fill-opacity:1;stroke:none;stroke-opacity:1"
       d="m -492.58752,546.4782 c -0.29193,-1.00395 -2.3978,-10.60036 -4.6797,-21.32536 -10.2128,-48.00037 -21.52565,-84.32582 -38.84674,-124.7365 -19.88188,-46.38506 -40.72894,-83.75428 -82.43242,-147.7635 -32.7241,-50.22708 -52.57294,-83.40824 -66.66793,-111.44826 -9.07401,-18.05149 -16.20934,-39.50068 -18.97894,-57.051736 -0.65094,-4.125 -1.71462,-9.3 -2.36374,-11.5 -1.51586,-5.13756 -1.4639,-38.22076 0.0707,-45.00001 0.62251,-2.75 2.2715,-11.16162 3.66444,-18.6924901 7.2421,-39.1540599 26.19966,-75.0674099 55.51119,-105.1608399 37.49422,-38.494384 84.23718,-59.760824 142.4227,-64.797424 18.55148,-1.60584 42.42744,1.08003 68.28831,7.68191 60.70262,15.49643 110.35053,55.806834 137.84565,111.920394 14.56004,29.71495 20.84835,57.56181 20.78615,92.04845 -0.0344,19.0408 -1.7407,32.70288 -6.27011,50.202136 -3.8064,14.70595 -6.22989,20.72691 -18.43406,45.79787 -16.69304,34.29244 -22.9079,44.86521 -59.07563,100.5 -35.84766,55.14245 -49.4779,78.03666 -66.97772,112.5 -18.96489,37.3486 -32.25155,69.96317 -42.36797,104 -6.3371,21.32129 -8.77999,31.11463 -15.06259,60.38465 -2.76064,12.86155 -5.21767,23.58296 -5.46006,23.82536 -0.2424,0.24239 -0.67957,-0.3807 -0.97151,-1.38465 z m 4.98074,-75.86149 c 14.84895,-52.00852 36.46928,-102.12812 66.74339,-154.72255 13.04234,-22.6581 23.97001,-40.17467 49.28703,-79.00488 11.91845,-18.28004 26.12958,-40.66144 31.58027,-49.73644 11.58729,-19.29197 34.34435,-64.71616 38.6156,-77.07863 15.73309,-45.536926 12.6747,-97.925646 -8.31439,-142.421376 -25.4644,-53.98315 -73.2266,-93.217174 -131.44486,-107.974744 -19.49653,-4.94212 -28.16294,-5.93161 -52.0996,-5.94852 -24.75733,-0.0175 -36.59739,1.50064 -56.56073,7.25223 -65.57394,18.89232 -117.29898,70.134544 -135.93994,134.6710339 -5.47684,18.9612501 -6.86746,30.0538601 -6.89502,55.0000001 -0.0234,21.20189 0.18391,23.98181 2.65212,35.55837 5.16965,24.247076 12.16526,40.818136 32.71169,77.486836 13.59549,24.26354 18.47137,32.23209 40.35714,65.9548 38.6178,59.50428 50.0388,78.28416 67.07742,110.29739 23.40961,43.98344 42.55246,91.01855 54.12026,132.97669 1.55791,5.65075 3.25134,10.13449 3.76319,9.96388 0.51184,-0.17062 2.46774,-5.69396 4.34643,-12.27409 z m -14.47628,-351.49378 c -30.30224,-4.15289 -55.19977,-27.299296 -61.71337,-57.372866 -3.4492,-15.92511 -0.72466,-34.43501 7.374,-50.09723 5.29569,-10.2414901 19.02632,-23.70813 29.89637,-29.32159 20.09365,-10.37664 43.95531,-11.24307 63.6539,-2.3113 36.69395,16.6378299 53.17297,58.35123 37.66881,95.35119 -12.27937,29.304136 -45.27702,48.082906 -76.87971,43.751796 z"
       id="path3896"
       inkscape:connector-curvature="0" /></g></svg>